<svg xmlns="http://www.w3.org/2000/svg" xmlns:xlink="http://www.w3.org/1999/xlink" id="processonSvg1000" viewBox="143.0 82.0 386.75 973.0" width="386.75" height="973.0"><defs id="ProcessOnDefs1001"><marker id="ProcessOnMarker1011" markerUnits="userSpaceOnUse" orient="auto" markerWidth="16.23606797749979" markerHeight="10.550836550532098" viewBox="-1.0 -1.3763819204711736 16.23606797749979 10.550836550532098" refX="-1.0" refY="3.8990363547948754"><path id="ProcessOnPath1012" d="M12.0 3.8990363547948754L0.0 7.798072709589751V0.0Z" stroke="#323232" stroke-width="2.0" fill="#323232" transform="matrix(1.0,0.0,0.0,1.0,0.0,0.0)"/></marker><marker id="ProcessOnMarker1020" markerUnits="userSpaceOnUse" orient="auto" markerWidth="16.23606797749979" markerHeight="10.550836550532098" viewBox="-1.0 -1.3763819204711736 16.23606797749979 10.550836550532098" refX="-1.0" refY="3.8990363547948754"><path id="ProcessOnPath1021" d="M12.0 3.8990363547948754L0.0 7.798072709589751V0.0Z" stroke="#323232" stroke-width="2.0" fill="#323232" transform="matrix(1.0,0.0,0.0,1.0,0.0,0.0)"/></marker><marker id="ProcessOnMarker1035" markerUnits="userSpaceOnUse" orient="auto" markerWidth="16.23606797749979" markerHeight="10.550836550532098" viewBox="-1.0 -1.3763819204711736 16.23606797749979 10.550836550532098" refX="-1.0" refY="3.8990363547948754"><path id="ProcessOnPath1036" d="M12.0 3.8990363547948754L0.0 7.798072709589751V0.0Z" stroke="#323232" stroke-width="2.0" fill="#323232" transform="matrix(1.0,0.0,0.0,1.0,0.0,0.0)"/></marker><marker id="ProcessOnMarker1044" markerUnits="userSpaceOnUse" orient="auto" markerWidth="16.23606797749979" markerHeight="10.550836550532098" viewBox="-1.0 -1.3763819204711736 16.23606797749979 10.550836550532098" refX="-1.0" refY="3.8990363547948754"><path id="ProcessOnPath1045" d="M12.0 3.8990363547948754L0.0 7.798072709589751V0.0Z" stroke="#323232" stroke-width="2.0" fill="#323232" transform="matrix(1.0,0.0,0.0,1.0,0.0,0.0)"/></marker><marker id="ProcessOnMarker1051" markerUnits="userSpaceOnUse" orient="auto" markerWidth="16.23606797749979" markerHeight="10.550836550532098" viewBox="-1.0 -1.3763819204711736 16.23606797749979 10.550836550532098" refX="-1.0" refY="3.8990363547948754"><path id="ProcessOnPath1052" d="M12.0 3.8990363547948754L0.0 7.798072709589751V0.0Z" stroke="#323232" stroke-width="2.0" fill="#323232" transform="matrix(1.0,0.0,0.0,1.0,0.0,0.0)"/></marker><marker id="ProcessOnMarker1064" markerUnits="userSpaceOnUse" orient="auto" markerWidth="16.23606797749979" markerHeight="10.550836550532098" viewBox="-1.0 -1.3763819204711736 16.23606797749979 10.550836550532098" refX="-1.0" refY="3.8990363547948754"><path id="ProcessOnPath1065" d="M12.0 3.8990363547948754L0.0 7.798072709589751V0.0Z" stroke="#323232" stroke-width="2.0" fill="#323232" transform="matrix(1.0,0.0,0.0,1.0,0.0,0.0)"/></marker><marker id="ProcessOnMarker1068" markerUnits="userSpaceOnUse" orient="auto" markerWidth="16.23606797749979" markerHeight="10.550836550532098" viewBox="-1.0 -1.3763819204711736 16.23606797749979 10.550836550532098" refX="-1.0" refY="3.8990363547948754"><path id="ProcessOnPath1069" d="M12.0 3.8990363547948754L0.0 7.798072709589751V0.0Z" stroke="#323232" stroke-width="2.0" fill="#323232" transform="matrix(1.0,0.0,0.0,1.0,0.0,0.0)"/></marker><marker id="ProcessOnMarker1076" markerUnits="userSpaceOnUse" orient="auto" markerWidth="16.23606797749979" markerHeight="10.550836550532098" viewBox="-1.0 -1.3763819204711736 16.23606797749979 10.550836550532098" refX="-1.0" refY="3.8990363547948754"><path id="ProcessOnPath1077" d="M12.0 3.8990363547948754L0.0 7.798072709589751V0.0Z" stroke="#323232" stroke-width="2.0" fill="#323232" transform="matrix(1.0,0.0,0.0,1.0,0.0,0.0)"/></marker></defs><g id="ProcessOnG1002"><path id="ProcessOnPath1003" d="M143.0 82.0H529.75V1055.0H143.0V82.0Z" fill="none"/><g id="ProcessOnG1004"><g id="ProcessOnG1005" transform="matrix(1.0,0.0,0.0,1.0,317.25,102.0)" opacity="1.0"><path id="ProcessOnPath1006" d="M17.333333333333332 0.0L175.16666666666666 0.0C198.27777777777777 0.0 198.27777777777777 52.0 175.16666666666666 52.0L17.333333333333332 52.0C-5.777777777777778 52.0 -5.777777777777778 0.0 17.333333333333332 0.0Z" stroke="#323232" stroke-width="2.0" stroke-dasharray="none" opacity="1.0" fill="#ffffff"/><g id="ProcessOnG1007" transform="matrix(1.0,0.0,0.0,1.0,10.0,17.875)"><text id="ProcessOnText1008" fill="#000000" font-weight="normal" font-style="normal" text-decoration="blink" font-family="微软雅黑" text-anchor="middle" font-size="13" x="86.25" y="13.325">ResponsePackState</text></g></g><g id="ProcessOnG1009"><path id="ProcessOnPath1010" d="M413.5 154.0L413.5 198.5L413.5 198.5L413.5 227.7639320225002" stroke="#323232" stroke-width="2.0" stroke-dasharray="none" fill="none" marker-end="url(#ProcessOnMarker1011)"/></g><g id="ProcessOnG1013" transform="matrix(1.0,0.0,0.0,1.0,338.0,243.0)" opacity="1.0"><path id="ProcessOnPath1014" d="M0.0 0.0L151.0 0.0L151.0 70.0L0.0 70.0Z" stroke="#323232" stroke-width="2.0" stroke-dasharray="none" opacity="1.0" fill="#ffffff"/><g id="ProcessOnG1015" transform="matrix(1.0,0.0,0.0,1.0,10.0,18.75)"><text id="ProcessOnText1016" fill="#000000" font-weight="normal" font-style="normal" text-decoration="blink" font-family="微软雅黑" text-anchor="middle" font-size="13" x="65.5" y="13.325">根据Response创建Cra</text><text id="ProcessOnText1017" fill="#000000" font-weight="normal" font-style="normal" text-decoration="blink" font-family="微软雅黑" text-anchor="middle" font-size="13" x="65.5" y="29.575">wlStepResult</text></g></g><g id="ProcessOnG1018"><path id="ProcessOnPath1019" d="M413.5 313.0L413.5 347.5L413.5 347.5L413.5 366.7639320225002" stroke="#323232" stroke-width="2.0" stroke-dasharray="none" fill="none" marker-end="url(#ProcessOnMarker1020)"/></g><g id="ProcessOnG1022" transform="matrix(1.0,0.0,0.0,1.0,328.25,382.0)" opacity="1.0"><path id="ProcessOnPath1023" d="M0.0 0.0L170.5 0.0L170.5 89.0L0.0 89.0Z" stroke="#323232" stroke-width="2.0" stroke-dasharray="none" opacity="1.0" fill="#ffffff"/><g id="ProcessOnG1024" transform="matrix(1.0,0.0,0.0,1.0,10.0,28.25)"><text id="ProcessOnText1025" fill="#000000" font-weight="normal" font-style="normal" text-decoration="blink" font-family="微软雅黑" text-anchor="middle" font-size="13" x="75.25" y="13.325">从IHtmlDocument中抽</text><text id="ProcessOnText1026" fill="#000000" font-weight="normal" font-style="normal" text-decoration="blink" font-family="微软雅黑" text-anchor="middle" font-size="13" x="75.25" y="29.575">取需要继续爬取的url</text></g></g><g id="ProcessOnG1027" transform="matrix(1.0,0.0,0.0,1.0,163.0,606.0)" opacity="1.0"><path id="ProcessOnPath1028" d="M0.0 0.0L155.25 0.0L155.25 79.0L0.0 79.0Z" stroke="#323232" stroke-width="2.0" stroke-dasharray="none" opacity="1.0" fill="#ffffff"/><g id="ProcessOnG1029" transform="matrix(1.0,0.0,0.0,1.0,10.0,15.125)"><text id="ProcessOnText1030" fill="#000000" font-weight="normal" font-style="normal" text-decoration="blink" font-family="微软雅黑" text-anchor="middle" font-size="13" x="67.625" y="13.325">执行页面模型的处理器</text><text id="ProcessOnText1031" fill="#000000" font-weight="normal" font-style="normal" text-decoration="blink" font-family="微软雅黑" text-anchor="middle" font-size="13" x="67.625" y="29.575">对当前CrawlStepResul</text><text id="ProcessOnText1032" fill="#000000" font-weight="normal" font-style="normal" text-decoration="blink" font-family="微软雅黑" text-anchor="middle" font-size="13" x="67.625" y="45.825">t做处理</text></g></g><g id="ProcessOnG1033"><path id="ProcessOnPath1034" d="M413.5 471.0L413.5 496.0L413.5 496.0L413.5 505.7639320225002" stroke="#323232" stroke-width="2.0" stroke-dasharray="none" fill="none" marker-end="url(#ProcessOnMarker1035)"/></g><g id="ProcessOnG1037" transform="matrix(1.0,0.0,0.0,1.0,330.25,521.0)" opacity="1.0"><path id="ProcessOnPath1038" d="M0.0 49.0L83.25 0.0L166.5 49.0L83.25 98.0L0.0 49.0Z" stroke="#323232" stroke-width="2.0" stroke-dasharray="none" opacity="1.0" fill="#ffffff"/><g id="ProcessOnG1039" transform="matrix(1.0,0.0,0.0,1.0,10.0,32.75)"><text id="ProcessOnText1040" fill="#000000" font-weight="normal" font-style="normal" text-decoration="blink" font-family="微软雅黑" text-anchor="middle" font-size="13" x="73.25" y="13.325">当前页面模型的Processe</text><text id="ProcessOnText1041" fill="#000000" font-weight="normal" font-style="normal" text-decoration="blink" font-family="微软雅黑" text-anchor="middle" font-size="13" x="73.25" y="29.575">r不为空</text></g></g><g id="ProcessOnG1042"><path id="ProcessOnPath1043" d="M330.25 570.0L240.625 570.0L240.625 590.7639320225002" stroke="#323232" stroke-width="2.0" stroke-dasharray="none" fill="none" marker-end="url(#ProcessOnMarker1044)"/><g id="ProcessOnG1046" transform="matrix(1.0,0.0,0.0,1.0,275.0555339887499,561.875)"><path id="ProcessOnPath1047" d="M0 0H13.0V16.25H0Z" fill="#fff" transform="matrix(1.0,0.0,0.0,1.0,-6.5,0.0)"/><text id="ProcessOnText1048" fill="#000000" font-weight="normal" font-style="normal" text-decoration="blink" font-family="微软雅黑" text-anchor="middle" font-size="13" x="0.0" y="13.325">是</text></g></g><g id="ProcessOnG1049"><path id="ProcessOnPath1050" d="M240.625 685.0L240.625 721.5L338.0139320225002 721.5" stroke="#323232" stroke-width="2.0" stroke-dasharray="none" fill="none" marker-end="url(#ProcessOnMarker1051)"/><g id="ProcessOnG1053" transform="matrix(1.0,0.0,0.0,1.0,271.06946601125014,713.375)"><path id="ProcessOnPath1054" d="M0 0H13.0V16.25H0Z" fill="#fff" transform="matrix(1.0,0.0,0.0,1.0,-6.5,0.0)"/><text id="ProcessOnText1055" fill="#000000" font-weight="normal" font-style="normal" text-decoration="blink" font-family="微软雅黑" text-anchor="middle" font-size="13" x="0.0" y="13.325">否</text></g></g><g id="ProcessOnG1056" transform="matrix(1.0,0.0,0.0,1.0,353.25,685.0)" opacity="1.0"><path id="ProcessOnPath1057" d="M0.0 0.0L120.5 0.0L120.5 73.0L0.0 73.0Z" stroke="#323232" stroke-width="2.0" stroke-dasharray="none" opacity="1.0" fill="#ffffff"/><g id="ProcessOnG1058" transform="matrix(1.0,0.0,0.0,1.0,10.0,12.125)"><text id="ProcessOnText1059" fill="#000000" font-weight="normal" font-style="normal" text-decoration="blink" font-family="微软雅黑" text-anchor="middle" font-size="13" x="50.25" y="13.325">从当前CrawlSte</text><text id="ProcessOnText1060" fill="#000000" font-weight="normal" font-style="normal" text-decoration="blink" font-family="微软雅黑" text-anchor="middle" font-size="13" x="50.25" y="29.575">pResult中抽取出</text><text id="ProcessOnText1061" fill="#000000" font-weight="normal" font-style="normal" text-decoration="blink" font-family="微软雅黑" text-anchor="middle" font-size="13" x="50.25" y="45.825">Fruit</text></g></g><g id="ProcessOnG1062"><path id="ProcessOnPath1063" d="M413.5 619.0L413.5 652.0L413.5 652.0L413.5 669.7639320225002" stroke="#323232" stroke-width="2.0" stroke-dasharray="none" fill="none" marker-end="url(#ProcessOnMarker1064)"/></g><g id="ProcessOnG1066"><path id="ProcessOnPath1067" d="M413.5 758.0L413.5 797.5L413.5 797.5L413.5 821.7639320225002" stroke="#323232" stroke-width="2.0" stroke-dasharray="none" fill="none" marker-end="url(#ProcessOnMarker1068)"/></g><g id="ProcessOnG1070" transform="matrix(1.0,0.0,0.0,1.0,356.25,837.0)" opacity="1.0"><path id="ProcessOnPath1071" d="M0.0 41.5L57.25 0.0L114.5 41.5L57.25 83.0L0.0 41.5Z" stroke="#323232" stroke-width="2.0" stroke-dasharray="none" opacity="1.0" fill="#ffffff"/><g id="ProcessOnG1072" transform="matrix(1.0,0.0,0.0,1.0,10.0,33.375)"><text id="ProcessOnText1073" fill="#000000" font-weight="normal" font-style="normal" text-decoration="blink" font-family="微软雅黑" text-anchor="middle" font-size="13" x="47.25" y="13.325">Dump当前Fruit</text></g></g><g id="ProcessOnG1074"><path id="ProcessOnPath1075" d="M413.5 920.0L413.5 952.5L413.5 952.5L413.5 969.7639320225002" stroke="#323232" stroke-width="2.0" stroke-dasharray="none" fill="none" marker-end="url(#ProcessOnMarker1076)"/></g><g id="ProcessOnG1078" transform="matrix(1.0,0.0,0.0,1.0,363.5,985.0)" opacity="1.0"><path id="ProcessOnPath1079" d="M16.666666666666668 0.0L83.33333333333333 0.0C105.55555555555556 0.0 105.55555555555556 50.0 83.33333333333333 50.0L16.666666666666668 50.0C-5.555555555555556 50.0 -5.555555555555556 0.0 16.666666666666668 0.0Z" stroke="#323232" stroke-width="2.0" stroke-dasharray="none" opacity="1.0" fill="#ffffff"/><g id="ProcessOnG1080" transform="matrix(1.0,0.0,0.0,1.0,10.0,16.875)"><text id="ProcessOnText1081" fill="#000000" font-weight="normal" font-style="normal" text-decoration="blink" font-family="微软雅黑" text-anchor="middle" font-size="13" x="40.0" y="13.325">End</text></g></g></g></g></svg>