<svg xmlns="http://www.w3.org/2000/svg" xmlns:xlink="http://www.w3.org/1999/xlink" id="processonSvg1000" viewBox="72.0 95.0 1319.0 949.5" width="1319.0" height="949.5"><defs id="ProcessOnDefs1001"><linearGradient id="ProcessOnLinearGradient1018" x1="0.9469983318002789" y1="0.8200525829494073" x2="0.41197702676439435" y2="0.0"><stop id="ProcessOnStop1019" stop-opacity="1.0" stop-color="#9dd7ed" offset="0.0"/><stop id="ProcessOnStop1020" stop-opacity="1.0" stop-color="#899dc0" offset="1.0"/></linearGradient><linearGradient id="ProcessOnLinearGradient1022" x1="0.9469983318002789" y1="0.8200525829494073" x2="0.41197702676439435" y2="0.0"><stop id="ProcessOnStop1023" stop-opacity="1.0" stop-color="#9dd7ed" offset="0.0"/><stop id="ProcessOnStop1024" stop-opacity="1.0" stop-color="#899dc0" offset="1.0"/></linearGradient><linearGradient id="ProcessOnLinearGradient1030" x1="0.9469983318002789" y1="0.8200525829494073" x2="0.41197702676439435" y2="0.0"><stop id="ProcessOnStop1031" stop-opacity="1.0" stop-color="#9dd7ed" offset="0.0"/><stop id="ProcessOnStop1032" stop-opacity="1.0" stop-color="#899dc0" offset="1.0"/></linearGradient><linearGradient id="ProcessOnLinearGradient1040" x1="0.9469983318002788" y1="0.8354403557665003" x2="0.4119770267643943" y2="0.0"><stop id="ProcessOnStop1041" stop-opacity="1.0" stop-color="#9dd7ed" offset="0.0"/><stop id="ProcessOnStop1042" stop-opacity="1.0" stop-color="#899dc0" offset="1.0"/></linearGradient><linearGradient id="ProcessOnLinearGradient1049" x1="0.946998331800279" y1="0.8899428790641436" x2="0.4119770267643943" y2="0.0"><stop id="ProcessOnStop1050" stop-opacity="1.0" stop-color="#9dd7ed" offset="0.0"/><stop id="ProcessOnStop1051" stop-opacity="1.0" stop-color="#899dc0" offset="1.0"/></linearGradient><linearGradient id="ProcessOnLinearGradient1058" x1="0.9469983318002789" y1="0.725050549277547" x2="0.4119770267643943" y2="0.005581916198153631"><stop id="ProcessOnStop1059" stop-opacity="1.0" stop-color="#f5ecba" offset="0.0"/><stop id="ProcessOnStop1060" stop-opacity="1.0" stop-color="#f4d000" offset="1.0"/></linearGradient><linearGradient id="ProcessOnLinearGradient1063" x1="0.9469983318002788" y1="0.9197371355573297" x2="0.4119770267643943" y2="0.0"><stop id="ProcessOnStop1064" stop-opacity="1.0" stop-color="#00ff00" offset="0.0"/><stop id="ProcessOnStop1065" stop-opacity="1.0" stop-color="#00b400" offset="1.0"/></linearGradient><linearGradient id="ProcessOnLinearGradient1070" x1="0.9469983318002788" y1="0.9197371355573297" x2="0.4119770267643943" y2="0.0"><stop id="ProcessOnStop1071" stop-opacity="1.0" stop-color="#e873f2" offset="0.0"/><stop id="ProcessOnStop1072" stop-opacity="1.0" stop-color="#d12be0" offset="1.0"/></linearGradient><linearGradient id="ProcessOnLinearGradient1080" x1="0.9469983318002789" y1="0.8200525829494073" x2="0.41197702676439435" y2="0.0"><stop id="ProcessOnStop1081" stop-opacity="1.0" stop-color="#9dd7ed" offset="0.0"/><stop id="ProcessOnStop1082" stop-opacity="1.0" stop-color="#899dc0" offset="1.0"/></linearGradient><linearGradient id="ProcessOnLinearGradient1084" x1="0.9469983318002789" y1="0.8200525829494073" x2="0.41197702676439435" y2="0.0"><stop id="ProcessOnStop1085" stop-opacity="1.0" stop-color="#9dd7ed" offset="0.0"/><stop id="ProcessOnStop1086" stop-opacity="1.0" stop-color="#899dc0" offset="1.0"/></linearGradient><linearGradient id="ProcessOnLinearGradient1092" x1="0.9469983318002789" y1="0.8200525829494073" x2="0.41197702676439435" y2="0.0"><stop id="ProcessOnStop1093" stop-opacity="1.0" stop-color="#9dd7ed" offset="0.0"/><stop id="ProcessOnStop1094" stop-opacity="1.0" stop-color="#899dc0" offset="1.0"/></linearGradient><marker id="ProcessOnMarker1102" markerUnits="userSpaceOnUse" orient="auto" markerWidth="16.23606797749979" markerHeight="10.550836550532098" viewBox="-1.0 -1.3763819204711736 16.23606797749979 10.550836550532098" refX="15.23606797749979" refY="3.8990363547948754"><path id="ProcessOnPath1103" d="M12.0 3.8990363547948754L0.0 7.798072709589751V0.0Z" stroke="#323232" stroke-width="2.0" fill="#323232" transform="matrix(-1.0,1.2246467991473532E-16,-1.2246467991473532E-16,-1.0,14.23606797749979,7.798072709589751)"/></marker><marker id="ProcessOnMarker1104" markerUnits="userSpaceOnUse" orient="auto" markerWidth="16.23606797749979" markerHeight="10.550836550532098" viewBox="-1.0 -1.3763819204711736 16.23606797749979 10.550836550532098" refX="-1.0" refY="3.8990363547948754"><path id="ProcessOnPath1105" d="M12.0 3.8990363547948754L0.0 7.798072709589751V0.0Z" stroke="#323232" stroke-width="2.0" fill="#323232" transform="matrix(1.0,0.0,0.0,1.0,0.0,0.0)"/></marker><marker id="ProcessOnMarker1108" markerUnits="userSpaceOnUse" orient="auto" markerWidth="16.23606797749979" markerHeight="10.550836550532098" viewBox="-1.0 -1.3763819204711736 16.23606797749979 10.550836550532098" refX="15.23606797749979" refY="3.8990363547948754"><path id="ProcessOnPath1109" d="M12.0 3.8990363547948754L0.0 7.798072709589751V0.0Z" stroke="#323232" stroke-width="2.0" fill="#323232" transform="matrix(-1.0,1.2246467991473532E-16,-1.2246467991473532E-16,-1.0,14.23606797749979,7.798072709589751)"/></marker><marker id="ProcessOnMarker1110" markerUnits="userSpaceOnUse" orient="auto" markerWidth="16.23606797749979" markerHeight="10.550836550532098" viewBox="-1.0 -1.3763819204711736 16.23606797749979 10.550836550532098" refX="-1.0" refY="3.8990363547948754"><path id="ProcessOnPath1111" d="M12.0 3.8990363547948754L0.0 7.798072709589751V0.0Z" stroke="#323232" stroke-width="2.0" fill="#323232" transform="matrix(1.0,0.0,0.0,1.0,0.0,0.0)"/></marker><marker id="ProcessOnMarker1114" markerUnits="userSpaceOnUse" orient="auto" markerWidth="10.0" markerHeight="10.0" viewBox="-1.0 -1.0 10.0 10.0" refX="8.0" refY="4.0"><path id="ProcessOnPath1115" d="M0 4.0A4.0 4.0 0 0 1 4.0 0A4.0 4.0 0 1 1 0 4.0" stroke="#323232" stroke-width="2.0" fill="#fff"/></marker><marker id="ProcessOnMarker1116" markerUnits="userSpaceOnUse" orient="auto" markerWidth="16.23606797749979" markerHeight="10.550836550532098" viewBox="-1.0 -1.3763819204711736 16.23606797749979 10.550836550532098" refX="-1.0" refY="3.8990363547948754"><path id="ProcessOnPath1117" d="M12.0 3.8990363547948754L0.0 7.798072709589751V0.0Z" stroke="#323232" stroke-width="2.0" fill="#323232" transform="matrix(1.0,0.0,0.0,1.0,0.0,0.0)"/></marker><linearGradient id="ProcessOnLinearGradient1120" x1="0.9469983318002789" y1="0.8840630995392887" x2="0.4119770267643943" y2="0.0"><stop id="ProcessOnStop1121" stop-opacity="1.0" stop-color="#f5ecba" offset="0.0"/><stop id="ProcessOnStop1122" stop-opacity="1.0" stop-color="#f4d000" offset="1.0"/></linearGradient><linearGradient id="ProcessOnLinearGradient1127" x1="0.9469983318002789" y1="0.8840630995392887" x2="0.4119770267643943" y2="0.0"><stop id="ProcessOnStop1128" stop-opacity="1.0" stop-color="#f5ecba" offset="0.0"/><stop id="ProcessOnStop1129" stop-opacity="1.0" stop-color="#f4d000" offset="1.0"/></linearGradient><linearGradient id="ProcessOnLinearGradient1134" x1="0.9469983318002789" y1="0.8840630995392887" x2="0.4119770267643943" y2="0.0"><stop id="ProcessOnStop1135" stop-opacity="1.0" stop-color="#f5ecba" offset="0.0"/><stop id="ProcessOnStop1136" stop-opacity="1.0" stop-color="#f4d000" offset="1.0"/></linearGradient><marker id="ProcessOnMarker1141" markerUnits="userSpaceOnUse" orient="auto" markerWidth="16.23606797749979" markerHeight="10.550836550532098" viewBox="-1.0 -1.3763819204711736 16.23606797749979 10.550836550532098" refX="-1.0" refY="3.8990363547948754"><path id="ProcessOnPath1142" d="M12.0 3.8990363547948754L0.0 7.798072709589751V0.0Z" stroke="#323232" stroke-width="2.0" fill="#323232" transform="matrix(1.0,0.0,0.0,1.0,0.0,0.0)"/></marker><marker id="ProcessOnMarker1145" markerUnits="userSpaceOnUse" orient="auto" markerWidth="16.23606797749979" markerHeight="10.550836550532098" viewBox="-1.0 -1.3763819204711736 16.23606797749979 10.550836550532098" refX="-1.0" refY="3.8990363547948754"><path id="ProcessOnPath1146" d="M12.0 3.8990363547948754L0.0 7.798072709589751V0.0Z" stroke="#323232" stroke-width="2.0" fill="#323232" transform="matrix(1.0,0.0,0.0,1.0,0.0,0.0)"/></marker><marker id="ProcessOnMarker1149" markerUnits="userSpaceOnUse" orient="auto" markerWidth="16.23606797749979" markerHeight="10.550836550532098" viewBox="-1.0 -1.3763819204711736 16.23606797749979 10.550836550532098" refX="-1.0" refY="3.8990363547948754"><path id="ProcessOnPath1150" d="M12.0 3.8990363547948754L0.0 7.798072709589751V0.0Z" stroke="#323232" stroke-width="2.0" fill="#323232" transform="matrix(1.0,0.0,0.0,1.0,0.0,0.0)"/></marker><linearGradient id="ProcessOnLinearGradient1153" x1="0.9469983318002789" y1="0.8200525829494073" x2="0.41197702676439435" y2="0.0"><stop id="ProcessOnStop1154" stop-opacity="1.0" stop-color="#e873f2" offset="0.0"/><stop id="ProcessOnStop1155" stop-opacity="1.0" stop-color="#d12be0" offset="1.0"/></linearGradient><marker id="ProcessOnMarker1162" markerUnits="userSpaceOnUse" orient="auto" markerWidth="16.23606797749979" markerHeight="10.550836550532098" viewBox="-1.0 -1.3763819204711736 16.23606797749979 10.550836550532098" refX="-1.0" refY="3.8990363547948754"><path id="ProcessOnPath1163" d="M12.0 3.8990363547948754L0.0 7.798072709589751V0.0Z" stroke="#323232" stroke-width="2.0" fill="#323232" transform="matrix(1.0,0.0,0.0,1.0,0.0,0.0)"/></marker><marker id="ProcessOnMarker1166" markerUnits="userSpaceOnUse" orient="auto" markerWidth="16.23606797749979" markerHeight="10.550836550532098" viewBox="-1.0 -1.3763819204711736 16.23606797749979 10.550836550532098" refX="-1.0" refY="3.8990363547948754"><path id="ProcessOnPath1167" d="M12.0 3.8990363547948754L0.0 7.798072709589751V0.0Z" stroke="#323232" stroke-width="2.0" fill="#323232" transform="matrix(1.0,0.0,0.0,1.0,0.0,0.0)"/></marker><marker id="ProcessOnMarker1170" markerUnits="userSpaceOnUse" orient="auto" markerWidth="16.23606797749979" markerHeight="10.550836550532098" viewBox="-1.0 -1.3763819204711736 16.23606797749979 10.550836550532098" refX="-1.0" refY="3.8990363547948754"><path id="ProcessOnPath1171" d="M12.0 3.8990363547948754L0.0 7.798072709589751V0.0Z" stroke="#323232" stroke-width="2.0" fill="#323232" transform="matrix(1.0,0.0,0.0,1.0,0.0,0.0)"/></marker><linearGradient id="ProcessOnLinearGradient1174" x1="0.9469983318002789" y1="0.8200525829494073" x2="0.41197702676439435" y2="0.0"><stop id="ProcessOnStop1175" stop-opacity="1.0" stop-color="#e873f2" offset="0.0"/><stop id="ProcessOnStop1176" stop-opacity="1.0" stop-color="#d12be0" offset="1.0"/></linearGradient><marker id="ProcessOnMarker1183" markerUnits="userSpaceOnUse" orient="auto" markerWidth="16.23606797749979" markerHeight="10.550836550532098" viewBox="-1.0 -1.3763819204711736 16.23606797749979 10.550836550532098" refX="-1.0" refY="3.8990363547948754"><path id="ProcessOnPath1184" d="M12.0 3.8990363547948754L0.0 7.798072709589751V0.0Z" stroke="#323232" stroke-width="2.0" fill="#323232" transform="matrix(1.0,0.0,0.0,1.0,0.0,0.0)"/></marker><marker id="ProcessOnMarker1187" markerUnits="userSpaceOnUse" orient="auto" markerWidth="16.23606797749979" markerHeight="10.550836550532098" viewBox="-1.0 -1.3763819204711736 16.23606797749979 10.550836550532098" refX="-1.0" refY="3.8990363547948754"><path id="ProcessOnPath1188" d="M12.0 3.8990363547948754L0.0 7.798072709589751V0.0Z" stroke="#323232" stroke-width="2.0" fill="#323232" transform="matrix(1.0,0.0,0.0,1.0,0.0,0.0)"/></marker><marker id="ProcessOnMarker1191" markerUnits="userSpaceOnUse" orient="auto" markerWidth="16.23606797749979" markerHeight="10.550836550532098" viewBox="-1.0 -1.3763819204711736 16.23606797749979 10.550836550532098" refX="-1.0" refY="3.8990363547948754"><path id="ProcessOnPath1192" d="M12.0 3.8990363547948754L0.0 7.798072709589751V0.0Z" stroke="#323232" stroke-width="2.0" fill="#323232" transform="matrix(1.0,0.0,0.0,1.0,0.0,0.0)"/></marker><linearGradient id="ProcessOnLinearGradient1195" x1="0.9469983318002789" y1="1.0" x2="0.4119770267643943" y2="0.0"><stop id="ProcessOnStop1196" stop-opacity="1.0" stop-color="#effdfd" offset="0.0"/><stop id="ProcessOnStop1197" stop-opacity="1.0" stop-color="#a0ffff" offset="1.0"/></linearGradient><marker id="ProcessOnMarker1203" markerUnits="userSpaceOnUse" orient="auto" markerWidth="10.0" markerHeight="10.0" viewBox="-1.0 -1.0 10.0 10.0" refX="8.0" refY="4.0"><path id="ProcessOnPath1204" d="M0 4.0A4.0 4.0 0 0 1 4.0 0A4.0 4.0 0 1 1 0 4.0" stroke="#323232" stroke-width="2.0" fill="#fff"/></marker><marker id="ProcessOnMarker1205" markerUnits="userSpaceOnUse" orient="auto" markerWidth="16.23606797749979" markerHeight="10.550836550532098" viewBox="-1.0 -1.3763819204711736 16.23606797749979 10.550836550532098" refX="-1.0" refY="3.8990363547948754"><path id="ProcessOnPath1206" d="M12.0 3.8990363547948754L0.0 7.798072709589751V0.0Z" stroke="#323232" stroke-width="2.0" fill="#323232" transform="matrix(1.0,0.0,0.0,1.0,0.0,0.0)"/></marker><marker id="ProcessOnMarker1209" markerUnits="userSpaceOnUse" orient="auto" markerWidth="10.0" markerHeight="10.0" viewBox="-1.0 -1.0 10.0 10.0" refX="8.0" refY="4.0"><path id="ProcessOnPath1210" d="M0 4.0A4.0 4.0 0 0 1 4.0 0A4.0 4.0 0 1 1 0 4.0" stroke="#323232" stroke-width="2.0" fill="#323232"/></marker><marker id="ProcessOnMarker1211" markerUnits="userSpaceOnUse" orient="auto" markerWidth="10.0" markerHeight="10.0" viewBox="-1.0 -1.0 10.0 10.0" refX="0.0" refY="4.0"><path id="ProcessOnPath1212" d="M0 4.0A4.0 4.0 0 0 1 4.0 0A4.0 4.0 0 1 1 0 4.0" stroke="#323232" stroke-width="2.0" fill="#fff"/></marker><linearGradient id="ProcessOnLinearGradient1215" x1="0.9469983318002789" y1="0.8200525829494073" x2="0.41197702676439435" y2="0.0"><stop id="ProcessOnStop1216" stop-opacity="1.0" stop-color="#e873f2" offset="0.0"/><stop id="ProcessOnStop1217" stop-opacity="1.0" stop-color="#d12be0" offset="1.0"/></linearGradient><marker id="ProcessOnMarker1224" markerUnits="userSpaceOnUse" orient="auto" markerWidth="16.23606797749979" markerHeight="10.550836550532098" viewBox="-1.0 -1.3763819204711736 16.23606797749979 10.550836550532098" refX="-1.0" refY="3.8990363547948754"><path id="ProcessOnPath1225" d="M12.0 3.8990363547948754L0.0 7.798072709589751V0.0Z" stroke="#323232" stroke-width="2.0" fill="#323232" transform="matrix(1.0,0.0,0.0,1.0,0.0,0.0)"/></marker><marker id="ProcessOnMarker1228" markerUnits="userSpaceOnUse" orient="auto" markerWidth="16.23606797749979" markerHeight="10.550836550532098" viewBox="-1.0 -1.3763819204711736 16.23606797749979 10.550836550532098" refX="15.23606797749979" refY="3.8990363547948754"><path id="ProcessOnPath1229" d="M12.0 3.8990363547948754L0.0 7.798072709589751V0.0Z" stroke="#323232" stroke-width="2.0" fill="#323232" transform="matrix(-1.0,1.2246467991473532E-16,-1.2246467991473532E-16,-1.0,14.23606797749979,7.798072709589751)"/></marker><marker id="ProcessOnMarker1230" markerUnits="userSpaceOnUse" orient="auto" markerWidth="16.23606797749979" markerHeight="10.550836550532098" viewBox="-1.0 -1.3763819204711736 16.23606797749979 10.550836550532098" refX="-1.0" refY="3.8990363547948754"><path id="ProcessOnPath1231" d="M12.0 3.8990363547948754L0.0 7.798072709589751V0.0Z" stroke="#323232" stroke-width="2.0" fill="#323232" transform="matrix(1.0,0.0,0.0,1.0,0.0,0.0)"/></marker><linearGradient id="ProcessOnLinearGradient1234" x1="0.9469983318002789" y1="1.0" x2="0.4119770267643943" y2="0.0"><stop id="ProcessOnStop1235" stop-opacity="1.0" stop-color="#effdfd" offset="0.0"/><stop id="ProcessOnStop1236" stop-opacity="1.0" stop-color="#a0ffff" offset="1.0"/></linearGradient><marker id="ProcessOnMarker1242" markerUnits="userSpaceOnUse" orient="auto" markerWidth="10.0" markerHeight="10.0" viewBox="-1.0 -1.0 10.0 10.0" refX="8.0" refY="4.0"><path id="ProcessOnPath1243" d="M0 4.0A4.0 4.0 0 0 1 4.0 0A4.0 4.0 0 1 1 0 4.0" stroke="#323232" stroke-width="2.0" fill="#323232"/></marker><marker id="ProcessOnMarker1244" markerUnits="userSpaceOnUse" orient="auto" markerWidth="10.0" markerHeight="10.0" viewBox="-1.0 -1.0 10.0 10.0" refX="0.0" refY="4.0"><path id="ProcessOnPath1245" d="M0 4.0A4.0 4.0 0 0 1 4.0 0A4.0 4.0 0 1 1 0 4.0" stroke="#323232" stroke-width="2.0" fill="#fff"/></marker><linearGradient id="ProcessOnLinearGradient1248" x1="0.9469983318002789" y1="0.8200525829494073" x2="0.41197702676439435" y2="0.0"><stop id="ProcessOnStop1249" stop-opacity="1.0" stop-color="#e873f2" offset="0.0"/><stop id="ProcessOnStop1250" stop-opacity="1.0" stop-color="#d12be0" offset="1.0"/></linearGradient><marker id="ProcessOnMarker1257" markerUnits="userSpaceOnUse" orient="auto" markerWidth="16.23606797749979" markerHeight="10.550836550532098" viewBox="-1.0 -1.3763819204711736 16.23606797749979 10.550836550532098" refX="-1.0" refY="3.8990363547948754"><path id="ProcessOnPath1258" d="M12.0 3.8990363547948754L0.0 7.798072709589751V0.0Z" stroke="#323232" stroke-width="2.0" fill="#323232" transform="matrix(1.0,0.0,0.0,1.0,0.0,0.0)"/></marker></defs><g id="ProcessOnG1002"><path id="ProcessOnPath1003" d="M72.0 95.0H1391.0V1044.5H72.0V95.0Z" fill="#ffffff"/><g id="ProcessOnG1004"><g id="ProcessOnG1005" transform="matrix(1.0,0.0,0.0,1.0,92.0,447.0)" opacity="1.0"><path id="ProcessOnPath1006" d="M0.0 0.0L1279.0 0.0L1279.0 20.0L0.0 20.0L0.0 0.0Z" stroke="#0b6cc3" stroke-width="0.0" stroke-dasharray="none" opacity="1.0" fill="#00994d"/><g id="ProcessOnG1007" transform="matrix(1.0,0.0,0.0,1.0,10.0,1.875)"><text id="ProcessOnText1008" fill="#ffffff" font-weight="normal" font-style="normal" text-decoration="blink" font-family="微软雅黑" text-anchor="middle" font-size="13" x="629.5" y="13.325">网关</text></g></g><g id="ProcessOnG1009" transform="matrix(1.0,0.0,0.0,1.0,629.6875,523.5)" opacity="1.0"><path id="ProcessOnPath1010" d="M0.0 10.64C0.0 -3.04 112.0 -3.04 112.0 10.64L112.0 65.36C112.0 79.04 0.0 79.04 0.0 65.36L0.0 10.64Z" stroke="#0b6cc3" stroke-width="2.0" stroke-dasharray="none" opacity="1.0" fill="#ffcce6"/><path id="ProcessOnPath1011" d="M112.0 10.64C112.0 22.8 0.0 22.8 0.0 10.64C0.0 -3.04 112.0 -3.04 112.0 10.64Z" stroke="#0b6cc3" stroke-width="2.0" stroke-dasharray="none" opacity="1.0" fill="#ffcce6"/><path id="ProcessOnPath1012" d="M0.0 7.6000000000000005Q56.0 -7.6000000000000005 112.0 7.6000000000000005L112.0 68.4Q56.0 83.60000000000001 0.0 68.4L0.0 7.6000000000000005Z" stroke="#0b6cc3" stroke-width="0.0" stroke-dasharray="none" opacity="1.0" fill="none"/><g id="ProcessOnG1013" transform="matrix(1.0,0.0,0.0,1.0,0.0,27.07)"><text id="ProcessOnText1014" fill="#ffffff" font-weight="normal" font-style="normal" text-decoration="blink" font-family="微软雅黑" text-anchor="middle" font-size="13" x="56.0" y="13.325">蜂巢</text><text id="ProcessOnText1015" fill="#ffffff" font-weight="normal" font-style="normal" text-decoration="blink" font-family="微软雅黑" text-anchor="middle" font-size="13" x="56.0" y="29.575">（主数据中心）</text></g></g><g id="ProcessOnG1016" transform="matrix(1.0,0.0,0.0,1.0,635.6875,669.5)" opacity="1.0"><path id="ProcessOnPath1017" d="M0.0 9.8C0.0 -2.8000000000000003 100.0 -2.8000000000000003 100.0 9.8L100.0 60.199999999999996C100.0 72.8 0.0 72.8 0.0 60.199999999999996L0.0 9.8Z" stroke="#0b6cc3" stroke-width="2.0" stroke-dasharray="none" opacity="1.0" fill="url(#ProcessOnLinearGradient1018)"/><path id="ProcessOnPath1021" d="M100.0 9.8C100.0 21.0 0.0 21.0 0.0 9.8C0.0 -2.8000000000000003 100.0 -2.8000000000000003 100.0 9.8Z" stroke="#0b6cc3" stroke-width="2.0" stroke-dasharray="none" opacity="1.0" fill="url(#ProcessOnLinearGradient1022)"/><path id="ProcessOnPath1025" d="M0.0 7.0Q50.0 -7.0 100.0 7.0L100.0 63.0Q50.0 77.0 0.0 63.0L0.0 7.0Z" stroke="#0b6cc3" stroke-width="0.0" stroke-dasharray="none" opacity="1.0" fill="none"/><g id="ProcessOnG1026" transform="matrix(1.0,0.0,0.0,1.0,0.0,31.775000000000002)"><text id="ProcessOnText1027" fill="#ffffff" font-weight="normal" font-style="normal" text-decoration="blink" font-family="微软雅黑" text-anchor="middle" font-size="13" x="50.0" y="13.325">数据中心订阅</text></g></g><g id="ProcessOnG1028" transform="matrix(1.0,0.0,0.0,1.0,1008.125,691.0115525265958)" opacity="1.0"><path id="ProcessOnPath1029" d="M0.0 0.0L100.0 0.0L100.0 70.0L0.0 70.0L0.0 0.0Z" stroke="#0b6cc3" stroke-width="2.0" stroke-dasharray="none" opacity="1.0" fill="url(#ProcessOnLinearGradient1030)"/><g id="ProcessOnG1033" transform="matrix(1.0,0.0,0.0,1.0,10.0,2.5)"><text id="ProcessOnText1034" fill="#ffffff" font-weight="normal" font-style="normal" text-decoration="blink" font-family="微软雅黑" text-anchor="middle" font-size="13" x="40.0" y="13.325">Beyebe.Data</text><text id="ProcessOnText1035" fill="#ffffff" font-weight="normal" font-style="normal" text-decoration="blink" font-family="微软雅黑" text-anchor="middle" font-size="13" x="40.0" y="29.575">Hub.Controll</text><text id="ProcessOnText1036" fill="#ffffff" font-weight="normal" font-style="normal" text-decoration="blink" font-family="微软雅黑" text-anchor="middle" font-size="13" x="40.0" y="45.825">er.Remoting</text><text id="ProcessOnText1037" fill="#ffffff" font-weight="normal" font-style="normal" text-decoration="blink" font-family="微软雅黑" text-anchor="middle" font-size="13" x="40.0" y="62.075">Launcher</text></g></g><g id="ProcessOnG1038" transform="matrix(1.0,0.0,0.0,1.0,989.25,558.4991688829788)" opacity="1.0"><path id="ProcessOnPath1039" d="M0.0 18.400332446808488L13.775 18.400332446808488L13.775 9.200166223404244L27.55 9.200166223404244L27.55 0.0L137.75 0.0L137.75 64.40116356382971L123.97500000000001 64.40116356382971L123.97500000000001 73.60132978723395L110.2 73.60132978723395L110.2 82.8014960106382Q82.65 73.60132978723395 55.1 82.8014960106382Q27.55 92.00166223404244 0.0 82.8014960106382L0.0 18.400332446808488M0.0 18.400332446808488L110.2 18.400332446808488L110.2 82.8014960106382Q82.65 73.60132978723395 55.1 82.8014960106382Q27.55 92.00166223404244 0.0 82.8014960106382L0.0 18.400332446808488M13.775 18.400332446808488L13.775 9.200166223404244L123.97500000000001 9.200166223404244L123.97500000000001 73.60132978723395L110.2 73.60132978723395L110.2 18.400332446808488" stroke="#0b6cc3" stroke-width="2.0" stroke-dasharray="none" opacity="1.0" fill="url(#ProcessOnLinearGradient1040)"/><g id="ProcessOnG1043" transform="matrix(1.0,0.0,0.0,1.0,0.0,30.825997340425463)"><text id="ProcessOnText1044" fill="#ffffff" font-weight="normal" font-style="normal" text-decoration="blink" font-family="微软雅黑" text-anchor="middle" font-size="13" x="55.1" y="13.325">Beyebe.BCrawler.</text><text id="ProcessOnText1045" fill="#ffffff" font-weight="normal" font-style="normal" text-decoration="blink" font-family="微软雅黑" text-anchor="middle" font-size="13" x="55.1" y="29.575">Bee</text><text id="ProcessOnText1046" fill="#ffffff" font-weight="normal" font-style="normal" text-decoration="blink" font-family="微软雅黑" text-anchor="middle" font-size="13" x="55.1" y="45.825">（采集器）</text></g></g><g id="ProcessOnG1047" transform="matrix(1.0,0.0,0.0,1.0,412.125,227.02393617021283)" opacity="1.0"><path id="ProcessOnPath1048" d="M0.0 17.60957446808509L15.325000000000001 17.60957446808509L15.325000000000001 8.804787234042545L30.650000000000002 8.804787234042545L30.650000000000002 0.0L153.25 0.0L153.25 61.63351063829781L137.925 61.63351063829781L137.925 70.43829787234036L122.60000000000001 70.43829787234036L122.60000000000001 79.2430851063829Q91.95 70.43829787234036 61.300000000000004 79.2430851063829Q30.650000000000002 88.04787234042544 0.0 79.2430851063829L0.0 17.60957446808509M0.0 17.60957446808509L122.60000000000001 17.60957446808509L122.60000000000001 79.2430851063829Q91.95 70.43829787234036 61.300000000000004 79.2430851063829Q30.650000000000002 88.04787234042544 0.0 79.2430851063829L0.0 17.60957446808509M15.325000000000001 17.60957446808509L15.325000000000001 8.804787234042545L137.925 8.804787234042545L137.925 70.43829787234036L122.60000000000001 70.43829787234036L122.60000000000001 17.60957446808509" stroke="#0b6cc3" stroke-width="2.0" stroke-dasharray="none" opacity="1.0" fill="url(#ProcessOnLinearGradient1049)"/><g id="ProcessOnG1052" transform="matrix(1.0,0.0,0.0,1.0,0.0,28.453723404255268)"><text id="ProcessOnText1053" fill="#ffffff" font-weight="normal" font-style="normal" text-decoration="blink" font-family="微软雅黑" text-anchor="middle" font-size="13" x="61.300000000000004" y="13.325">Beyebe.BCrawler.Be</text><text id="ProcessOnText1054" fill="#ffffff" font-weight="normal" font-style="normal" text-decoration="blink" font-family="微软雅黑" text-anchor="middle" font-size="13" x="61.300000000000004" y="29.575">e</text><text id="ProcessOnText1055" fill="#ffffff" font-weight="normal" font-style="normal" text-decoration="blink" font-family="微软雅黑" text-anchor="middle" font-size="13" x="61.300000000000004" y="45.825">（采集器）</text></g></g><g id="ProcessOnG1056" transform="matrix(1.0,0.0,0.0,1.0,752.75,185.3125)" opacity="1.0"><path id="ProcessOnPath1057" d="M0.0 0.0L222.0 0.0L222.0 221.0L0.0 221.0Z" stroke="#dc5712" stroke-width="2.0" stroke-dasharray="none" opacity="1.0" fill="url(#ProcessOnLinearGradient1058)"/></g><g id="ProcessOnG1061" transform="matrix(1.0,0.0,0.0,1.0,786.6666666666666,204.12101063829778)" opacity="1.0"><path id="ProcessOnPath1062" d="M0.0 5.0Q0.0 0.0 5.0 0.0L149.16666666666666 0.0Q154.16666666666666 0.0 154.16666666666666 5.0L154.16666666666666 77.2872340425532Q154.16666666666666 82.2872340425532 149.16666666666666 82.2872340425532L5.0 82.2872340425532Q0.0 82.2872340425532 0.0 77.2872340425532L0.0 5.0Z" stroke="#006400" stroke-width="2.0" stroke-dasharray="none" opacity="1.0" fill="url(#ProcessOnLinearGradient1063)"/><g id="ProcessOnG1066" transform="matrix(1.0,0.0,0.0,1.0,10.0,33.0186170212766)"><text id="ProcessOnText1067" fill="#ffffff" font-weight="normal" font-style="normal" text-decoration="blink" font-family="微软雅黑" text-anchor="middle" font-size="13" x="67.08333333333333" y="13.325">操控中心客户端</text></g></g><g id="ProcessOnG1068" transform="matrix(1.0,0.0,0.0,1.0,786.6666666666666,305.2167553191489)" opacity="1.0"><path id="ProcessOnPath1069" d="M0.0 41.1436170212766L25.694444444444443 0.0L128.47222222222223 0.0L154.16666666666666 41.1436170212766L128.47222222222223 82.2872340425532L25.694444444444443 82.2872340425532L0.0 41.1436170212766Z" stroke="#a508b3" stroke-width="2.0" stroke-dasharray="none" opacity="1.0" fill="url(#ProcessOnLinearGradient1070)"/><g id="ProcessOnG1073" transform="matrix(1.0,0.0,0.0,1.0,10.0,8.643617021276597)"><text id="ProcessOnText1074" fill="#ffffff" font-weight="normal" font-style="normal" text-decoration="blink" font-family="微软雅黑" text-anchor="middle" font-size="13" x="67.08333333333333" y="13.325">Beyebe.DataHub.Con</text><text id="ProcessOnText1075" fill="#ffffff" font-weight="normal" font-style="normal" text-decoration="blink" font-family="微软雅黑" text-anchor="middle" font-size="13" x="67.08333333333333" y="29.575">troller.RemotingLaun</text><text id="ProcessOnText1076" fill="#ffffff" font-weight="normal" font-style="normal" text-decoration="blink" font-family="微软雅黑" text-anchor="middle" font-size="13" x="67.08333333333333" y="45.825">cher</text><text id="ProcessOnText1077" fill="#ffffff" font-weight="normal" font-style="normal" text-decoration="blink" font-family="微软雅黑" text-anchor="middle" font-size="13" x="67.08333333333333" y="62.075">（操控中心服务）</text></g></g><g id="ProcessOnG1078" transform="matrix(1.0,0.0,0.0,1.0,119.75,236.04787234042556)" opacity="1.0"><path id="ProcessOnPath1079" d="M0.0 9.8C0.0 -2.8000000000000003 100.0 -2.8000000000000003 100.0 9.8L100.0 60.199999999999996C100.0 72.8 0.0 72.8 0.0 60.199999999999996L0.0 9.8Z" stroke="#0b6cc3" stroke-width="2.0" stroke-dasharray="none" opacity="1.0" fill="url(#ProcessOnLinearGradient1080)"/><path id="ProcessOnPath1083" d="M100.0 9.8C100.0 21.0 0.0 21.0 0.0 9.8C0.0 -2.8000000000000003 100.0 -2.8000000000000003 100.0 9.8Z" stroke="#0b6cc3" stroke-width="2.0" stroke-dasharray="none" opacity="1.0" fill="url(#ProcessOnLinearGradient1084)"/><path id="ProcessOnPath1087" d="M0.0 7.0Q50.0 -7.0 100.0 7.0L100.0 63.0Q50.0 77.0 0.0 63.0L0.0 7.0Z" stroke="#0b6cc3" stroke-width="0.0" stroke-dasharray="none" opacity="1.0" fill="none"/><g id="ProcessOnG1088" transform="matrix(1.0,0.0,0.0,1.0,0.0,31.775000000000002)"><text id="ProcessOnText1089" fill="#ffffff" font-weight="normal" font-style="normal" text-decoration="blink" font-family="微软雅黑" text-anchor="middle" font-size="13" x="50.0" y="13.325">外网数据中心</text></g></g><g id="ProcessOnG1090" transform="matrix(1.0,0.0,0.0,1.0,438.75,115.0)" opacity="1.0"><path id="ProcessOnPath1091" d="M0.0 0.0L100.0 0.0L100.0 70.0L0.0 70.0L0.0 0.0Z" stroke="#0b6cc3" stroke-width="2.0" stroke-dasharray="none" opacity="1.0" fill="url(#ProcessOnLinearGradient1092)"/><g id="ProcessOnG1095" transform="matrix(1.0,0.0,0.0,1.0,10.0,2.5)"><text id="ProcessOnText1096" fill="#ffffff" font-weight="normal" font-style="normal" text-decoration="blink" font-family="微软雅黑" text-anchor="middle" font-size="13" x="40.0" y="13.325">Beyebe.Data</text><text id="ProcessOnText1097" fill="#ffffff" font-weight="normal" font-style="normal" text-decoration="blink" font-family="微软雅黑" text-anchor="middle" font-size="13" x="40.0" y="29.575">Hub.Controll</text><text id="ProcessOnText1098" fill="#ffffff" font-weight="normal" font-style="normal" text-decoration="blink" font-family="微软雅黑" text-anchor="middle" font-size="13" x="40.0" y="45.825">er.Remoting</text><text id="ProcessOnText1099" fill="#ffffff" font-weight="normal" font-style="normal" text-decoration="blink" font-family="微软雅黑" text-anchor="middle" font-size="13" x="40.0" y="62.075">Launcher</text></g></g><g id="ProcessOnG1100"><path id="ProcessOnPath1101" d="M771.4305986891668 346.36037234042533L676.0208333333333 346.36037234042533L676.0208333333333 271.04787234042556L580.6110679774998 271.04787234042556" stroke="#323232" stroke-width="2.0" stroke-dasharray="none" fill="none" marker-start="url(#ProcessOnMarker1102)" marker-end="url(#ProcessOnMarker1104)"/></g><g id="ProcessOnG1106"><path id="ProcessOnPath1107" d="M956.0694013108331 346.36037234042533L1058.125 346.36037234042533L1058.125 543.263100905479" stroke="#323232" stroke-width="2.0" stroke-dasharray="none" fill="none" marker-start="url(#ProcessOnMarker1108)" marker-end="url(#ProcessOnMarker1110)"/></g><g id="ProcessOnG1112"><path id="ProcessOnPath1113" d="M1058.125 682.0115525265958L1058.125 665.0060879321809L1058.125 665.0060879321809L1058.125 654.2366913152657" stroke="#323232" stroke-width="2.0" stroke-dasharray="none" fill="none" marker-start="url(#ProcessOnMarker1114)" marker-end="url(#ProcessOnMarker1116)"/></g><g id="ProcessOnG1118" transform="matrix(1.0,0.0,0.0,1.0,480.1875,951.5)" opacity="1.0"><path id="ProcessOnPath1119" d="M0.0 35.0C0.0 -11.666666666666666 120.0 -11.666666666666666 120.0 35.0C120.0 81.66666666666667 0.0 81.66666666666667 0.0 35.0M18.0 9.1L18.0 60.9" stroke="#dc5712" stroke-width="2.0" stroke-dasharray="none" opacity="1.0" fill="url(#ProcessOnLinearGradient1120)"/><g id="ProcessOnG1123" transform="matrix(1.0,0.0,0.0,1.0,18.0,26.875)"><text id="ProcessOnText1124" fill="#ffffff" font-weight="normal" font-style="normal" text-decoration="blink" font-family="微软雅黑" text-anchor="middle" font-size="13" x="46.0" y="13.325">百果园</text></g></g><g id="ProcessOnG1125" transform="matrix(1.0,0.0,0.0,1.0,625.1875,954.5)" opacity="1.0"><path id="ProcessOnPath1126" d="M0.0 35.0C0.0 -11.666666666666666 120.0 -11.666666666666666 120.0 35.0C120.0 81.66666666666667 0.0 81.66666666666667 0.0 35.0M18.0 9.1L18.0 60.9" stroke="#dc5712" stroke-width="2.0" stroke-dasharray="none" opacity="1.0" fill="url(#ProcessOnLinearGradient1127)"/><g id="ProcessOnG1130" transform="matrix(1.0,0.0,0.0,1.0,18.0,26.875)"><text id="ProcessOnText1131" fill="#ffffff" font-weight="normal" font-style="normal" text-decoration="blink" font-family="微软雅黑" text-anchor="middle" font-size="13" x="46.0" y="13.325">天虹</text></g></g><g id="ProcessOnG1132" transform="matrix(1.0,0.0,0.0,1.0,779.1875,951.5)" opacity="1.0"><path id="ProcessOnPath1133" d="M0.0 35.0C0.0 -11.666666666666666 120.0 -11.666666666666666 120.0 35.0C120.0 81.66666666666667 0.0 81.66666666666667 0.0 35.0M18.0 9.1L18.0 60.9" stroke="#dc5712" stroke-width="2.0" stroke-dasharray="none" opacity="1.0" fill="url(#ProcessOnLinearGradient1134)"/><g id="ProcessOnG1137" transform="matrix(1.0,0.0,0.0,1.0,18.0,26.875)"><text id="ProcessOnText1138" fill="#ffffff" font-weight="normal" font-style="normal" text-decoration="blink" font-family="微软雅黑" text-anchor="middle" font-size="13" x="46.0" y="13.325">商情宝</text></g></g><g id="ProcessOnG1139"><path id="ProcessOnPath1140" d="M685.6875 847.0115525265958L685.6875 899.2557762632979L839.1875 899.2557762632979L839.1875 936.2639320225002" stroke="#323232" stroke-width="2.0" stroke-dasharray="none" fill="none" marker-end="url(#ProcessOnMarker1141)"/></g><g id="ProcessOnG1143"><path id="ProcessOnPath1144" d="M685.6875 847.0115525265958L685.6875 900.7557762632979L685.1875 900.7557762632979L685.1875 939.2639320225002" stroke="#323232" stroke-width="2.0" stroke-dasharray="none" fill="none" marker-end="url(#ProcessOnMarker1145)"/></g><g id="ProcessOnG1147"><path id="ProcessOnPath1148" d="M685.6875 847.0115525265958L685.6875 899.2557762632979L540.1875 899.2557762632979L540.1875 936.2639320225002" stroke="#323232" stroke-width="2.0" stroke-dasharray="none" fill="none" marker-end="url(#ProcessOnMarker1149)"/></g><g id="ProcessOnG1151" transform="matrix(1.0,0.0,0.0,1.0,834.1875,569.5)" opacity="1.0"><path id="ProcessOnPath1152" d="M0.0 35.0L16.666666666666668 0.0L83.33333333333333 0.0L100.0 35.0L83.33333333333333 70.0L16.666666666666668 70.0L0.0 35.0Z" stroke="#a508b3" stroke-width="2.0" stroke-dasharray="none" opacity="1.0" fill="url(#ProcessOnLinearGradient1153)"/><g id="ProcessOnG1156" transform="matrix(1.0,0.0,0.0,1.0,10.0,10.625)"><text id="ProcessOnText1157" fill="#ffffff" font-weight="normal" font-style="normal" text-decoration="blink" font-family="微软雅黑" text-anchor="middle" font-size="13" x="40.0" y="13.325">Beyebe.Data</text><text id="ProcessOnText1158" fill="#ffffff" font-weight="normal" font-style="normal" text-decoration="blink" font-family="微软雅黑" text-anchor="middle" font-size="13" x="40.0" y="29.575">Hub.Remotin</text><text id="ProcessOnText1159" fill="#ffffff" font-weight="normal" font-style="normal" text-decoration="blink" font-family="微软雅黑" text-anchor="middle" font-size="13" x="40.0" y="45.825">gLauncher</text></g></g><g id="ProcessOnG1160"><path id="ProcessOnPath1161" d="M834.1875 604.5L787.9375 604.5L787.9375 561.5L756.9235679774998 561.5" stroke="#323232" stroke-width="2.0" stroke-dasharray="none" fill="none" marker-end="url(#ProcessOnMarker1162)"/></g><g id="ProcessOnG1164"><path id="ProcessOnPath1165" d="M834.1875 604.5L787.9375 604.5L787.9375 704.5L750.9235679774998 704.5" stroke="#323232" stroke-width="2.0" stroke-dasharray="none" fill="none" marker-end="url(#ProcessOnMarker1166)"/></g><g id="ProcessOnG1168"><path id="ProcessOnPath1169" d="M989.25 604.5L961.71875 604.5L961.71875 604.5L949.4235679774998 604.5" stroke="#323232" stroke-width="2.0" stroke-dasharray="none" fill="none" marker-end="url(#ProcessOnMarker1170)"/></g><g id="ProcessOnG1172" transform="matrix(1.0,0.0,0.0,1.0,368.6875,569.5)" opacity="1.0"><path id="ProcessOnPath1173" d="M0.0 35.0L16.666666666666668 0.0L83.33333333333333 0.0L100.0 35.0L83.33333333333333 70.0L16.666666666666668 70.0L0.0 35.0Z" stroke="#a508b3" stroke-width="2.0" stroke-dasharray="none" opacity="1.0" fill="url(#ProcessOnLinearGradient1174)"/><g id="ProcessOnG1177" transform="matrix(1.0,0.0,0.0,1.0,10.0,10.625)"><text id="ProcessOnText1178" fill="#ffffff" font-weight="normal" font-style="normal" text-decoration="blink" font-family="微软雅黑" text-anchor="middle" font-size="13" x="40.0" y="13.325">Beyebe.Data</text><text id="ProcessOnText1179" fill="#ffffff" font-weight="normal" font-style="normal" text-decoration="blink" font-family="微软雅黑" text-anchor="middle" font-size="13" x="40.0" y="29.575">Hub.DataLoa</text><text id="ProcessOnText1180" fill="#ffffff" font-weight="normal" font-style="normal" text-decoration="blink" font-family="微软雅黑" text-anchor="middle" font-size="13" x="40.0" y="45.825">der</text></g></g><g id="ProcessOnG1181"><path id="ProcessOnPath1182" d="M313.75 306.04787234042556L313.75 604.5L353.4514320225002 604.5" stroke="#323232" stroke-width="2.0" stroke-dasharray="none" fill="none" marker-end="url(#ProcessOnMarker1183)"/></g><g id="ProcessOnG1185"><path id="ProcessOnPath1186" d="M468.6875 604.5L549.1875 604.5L549.1875 561.5L614.4514320225002 561.5" stroke="#323232" stroke-width="2.0" stroke-dasharray="none" fill="none" marker-end="url(#ProcessOnMarker1187)"/></g><g id="ProcessOnG1189"><path id="ProcessOnPath1190" d="M468.6875 604.5L548.1875 604.5L548.1875 704.5L620.4514320225002 704.5" stroke="#323232" stroke-width="2.0" stroke-dasharray="none" fill="none" marker-end="url(#ProcessOnMarker1191)"/></g><g id="ProcessOnG1193" transform="matrix(1.0,0.0,0.0,1.0,1171.25,565.7739361702127)" opacity="1.0"><path id="ProcessOnPath1194" d="M0.0 3.2Q0.0 0.0 3.2 0.0L141.6 0.0Q144.8 0.0 144.8 3.2L144.8 58.761702127659646Q144.8 61.96170212765965 141.6 61.96170212765965L3.2 61.96170212765965Q0.0 61.96170212765965 0.0 58.761702127659646L0.0 3.2M144.8 6.0L181.0 38.72606382978728L141.6 77.45212765957456L67.875 77.45212765957456L45.25 61.96170212765965L141.6 61.96170212765965Q144.8 61.96170212765965 144.8 58.761702127659646" stroke="#44aaaa" stroke-width="2.0" stroke-dasharray="none" opacity="1.0" fill="url(#ProcessOnLinearGradient1195)"/><g id="ProcessOnG1198" transform="matrix(1.0,0.0,0.0,1.0,0.0,14.730851063829824)"><text id="ProcessOnText1199" fill="#ffffff" font-weight="normal" font-style="normal" text-decoration="blink" font-family="微软雅黑" text-anchor="middle" font-size="13" x="72.4" y="13.325">养蜂人</text><text id="ProcessOnText1200" fill="#ffffff" font-weight="normal" font-style="normal" text-decoration="blink" font-family="微软雅黑" text-anchor="middle" font-size="13" x="72.4" y="29.575">（进程守护、资源监控）</text></g></g><g id="ProcessOnG1201"><path id="ProcessOnPath1202" d="M488.75 194.0L488.75 206.01196808510642L488.75 206.01196808510642L488.75 211.78786819271303" stroke="#323232" stroke-width="2.0" stroke-dasharray="none" fill="none" marker-start="url(#ProcessOnMarker1203)" marker-end="url(#ProcessOnMarker1205)"/></g><g id="ProcessOnG1207"><path id="ProcessOnPath1208" d="M1162.25 604.5L1149.125 604.5L1149.125 604.5L1136.0 604.5" stroke="#323232" stroke-width="2.0" stroke-dasharray="none" fill="none" marker-start="url(#ProcessOnMarker1209)" marker-end="url(#ProcessOnMarker1211)"/></g><g id="ProcessOnG1213" transform="matrix(1.0,0.0,0.0,1.0,263.75,236.04787234042556)" opacity="1.0"><path id="ProcessOnPath1214" d="M0.0 35.0L16.666666666666668 0.0L83.33333333333333 0.0L100.0 35.0L83.33333333333333 70.0L16.666666666666668 70.0L0.0 35.0Z" stroke="#a508b3" stroke-width="2.0" stroke-dasharray="none" opacity="1.0" fill="url(#ProcessOnLinearGradient1215)"/><g id="ProcessOnG1218" transform="matrix(1.0,0.0,0.0,1.0,10.0,10.625)"><text id="ProcessOnText1219" fill="#ffffff" font-weight="normal" font-style="normal" text-decoration="blink" font-family="微软雅黑" text-anchor="middle" font-size="13" x="40.0" y="13.325">Beyebe.Data</text><text id="ProcessOnText1220" fill="#ffffff" font-weight="normal" font-style="normal" text-decoration="blink" font-family="微软雅黑" text-anchor="middle" font-size="13" x="40.0" y="29.575">Hub.Remotin</text><text id="ProcessOnText1221" fill="#ffffff" font-weight="normal" font-style="normal" text-decoration="blink" font-family="微软雅黑" text-anchor="middle" font-size="13" x="40.0" y="45.825">gLauncher</text></g></g><g id="ProcessOnG1222"><path id="ProcessOnPath1223" d="M412.125 271.04787234042556L387.9375 271.04787234042556L387.9375 271.04787234042556L378.9860679774998 271.04787234042556" stroke="#323232" stroke-width="2.0" stroke-dasharray="none" fill="none" marker-end="url(#ProcessOnMarker1224)"/></g><g id="ProcessOnG1226"><path id="ProcessOnPath1227" d="M248.5139320225002 271.04787234042556L241.75 271.04787234042556L241.75 271.04787234042556L234.9860679774998 271.04787234042556" stroke="#323232" stroke-width="2.0" stroke-dasharray="none" fill="none" marker-start="url(#ProcessOnMarker1228)" marker-end="url(#ProcessOnMarker1230)"/></g><g id="ProcessOnG1232" transform="matrix(1.0,0.0,0.0,1.0,398.25,345.8218085106382)" opacity="1.0"><path id="ProcessOnPath1233" d="M0.0 3.2Q0.0 0.0 3.2 0.0L141.6 0.0Q144.8 0.0 144.8 3.2L144.8 58.761702127659646Q144.8 61.96170212765965 141.6 61.96170212765965L3.2 61.96170212765965Q0.0 61.96170212765965 0.0 58.761702127659646L0.0 3.2M144.8 6.0L181.0 38.72606382978728L141.6 77.45212765957456L67.875 77.45212765957456L45.25 61.96170212765965L141.6 61.96170212765965Q144.8 61.96170212765965 144.8 58.761702127659646" stroke="#44aaaa" stroke-width="2.0" stroke-dasharray="none" opacity="1.0" fill="url(#ProcessOnLinearGradient1234)"/><g id="ProcessOnG1237" transform="matrix(1.0,0.0,0.0,1.0,0.0,14.730851063829824)"><text id="ProcessOnText1238" fill="#737373" font-weight="normal" font-style="normal" text-decoration="blink" font-family="微软雅黑" text-anchor="middle" font-size="13" x="72.4" y="13.325">养蜂人</text><text id="ProcessOnText1239" fill="#737373" font-weight="normal" font-style="normal" text-decoration="blink" font-family="微软雅黑" text-anchor="middle" font-size="13" x="72.4" y="29.575">（进程守护、资源监控）</text></g></g><g id="ProcessOnG1240"><path id="ProcessOnPath1241" d="M488.75 336.8218085106382L488.75 324.94381648936167L488.75 324.94381648936167L488.75 313.0658244680851" stroke="#323232" stroke-width="2.0" stroke-dasharray="none" fill="none" marker-start="url(#ProcessOnMarker1242)" marker-end="url(#ProcessOnMarker1244)"/></g><g id="ProcessOnG1246" transform="matrix(1.0,0.0,0.0,1.0,635.6875,777.0115525265958)" opacity="1.0"><path id="ProcessOnPath1247" d="M0.0 35.0L16.666666666666668 0.0L83.33333333333333 0.0L100.0 35.0L83.33333333333333 70.0L16.666666666666668 70.0L0.0 35.0Z" stroke="#a508b3" stroke-width="2.0" stroke-dasharray="none" opacity="1.0" fill="url(#ProcessOnLinearGradient1248)"/><g id="ProcessOnG1251" transform="matrix(1.0,0.0,0.0,1.0,10.0,10.625)"><text id="ProcessOnText1252" fill="#ffffff" font-weight="normal" font-style="normal" text-decoration="blink" font-family="微软雅黑" text-anchor="middle" font-size="13" x="40.0" y="13.325">Beyebe.Data</text><text id="ProcessOnText1253" fill="#ffffff" font-weight="normal" font-style="normal" text-decoration="blink" font-family="微软雅黑" text-anchor="middle" font-size="13" x="40.0" y="29.575">Hub.Remotin</text><text id="ProcessOnText1254" fill="#ffffff" font-weight="normal" font-style="normal" text-decoration="blink" font-family="微软雅黑" text-anchor="middle" font-size="13" x="40.0" y="45.825">gLauncher</text></g></g><g id="ProcessOnG1255"><path id="ProcessOnPath1256" d="M685.6875 739.5L685.6875 758.2557762632979L685.6875 758.2557762632979L685.6875 761.775484549096" stroke="#323232" stroke-width="2.0" stroke-dasharray="none" fill="none" marker-end="url(#ProcessOnMarker1257)"/></g></g></g></svg>